<svg width="26" height="27" viewBox="0 0 26 27" fill="none" xmlns="http://www.w3.org/2000/svg">
    <path d="M24.8032 19.5844C24.5407 19.1156 24.222 18.6469 23.8657 18.15C23.018 17.0914 22.4304 15.8488 22.1501 14.5219L21.7564 8.99062C21.522 4.70625 19.0189 0.375 14.0407 0.375H11.9595C6.98136 0.375 4.45949 4.70625 4.20636 8.98125L3.81261 14.5219C3.53352 15.8605 2.94609 17.1156 2.09699 18.1875C1.77824 18.675 1.45949 19.125 1.24386 19.5469C1.01245 19.8575 0.872294 20.2265 0.839169 20.6124C0.806044 20.9983 0.881263 21.3858 1.05636 21.7312C1.26065 22.0941 1.56161 22.3931 1.92575 22.595C2.28989 22.7969 2.70291 22.8939 3.11886 22.875H10.3564C10.2022 23.2998 10.1526 23.7555 10.2119 24.2035C10.2712 24.6516 10.4376 25.0787 10.697 25.4488C10.9564 25.8188 11.3011 26.121 11.702 26.3296C12.1029 26.5381 12.5482 26.647 13.0001 26.647C13.452 26.647 13.8973 26.5381 14.2982 26.3296C14.6991 26.121 15.0439 25.8188 15.3033 25.4488C15.5626 25.0787 15.729 24.6516 15.7883 24.2035C15.8476 23.7555 15.798 23.2998 15.6439 22.875H22.8814C23.3011 22.8903 23.7168 22.7877 24.0813 22.5789C24.4458 22.3702 24.7446 22.0635 24.9439 21.6937C25.1191 21.3639 25.1988 20.9917 25.1739 20.619C25.1491 20.2464 25.0207 19.888 24.8032 19.5844ZM13.9376 23.8125C13.9376 23.9979 13.8826 24.1792 13.7796 24.3333C13.6766 24.4875 13.5302 24.6077 13.3589 24.6786C13.1876 24.7496 12.9991 24.7682 12.8172 24.732C12.6354 24.6958 12.4683 24.6065 12.3372 24.4754C12.2061 24.3443 12.1168 24.1772 12.0806 23.9954C12.0445 23.8135 12.063 23.625 12.134 23.4537C12.2049 23.2824 12.3251 23.136 12.4793 23.033C12.6334 22.93 12.8147 22.875 13.0001 22.875C13.2488 22.875 13.4872 22.9738 13.663 23.1496C13.8388 23.3254 13.9376 23.5639 13.9376 23.8125ZM23.3126 20.8406C23.3126 20.9156 23.1532 21 22.9189 21H3.11886C2.88449 21 2.76261 20.9156 2.72511 20.8406C2.68761 20.7656 2.72511 20.6625 2.81886 20.5125C3.07199 20.0812 3.36261 19.6312 3.66261 19.1812C4.60011 17.8312 5.53761 16.2937 5.67824 14.6531L6.08136 9.1125C6.27824 5.94375 7.93761 2.25 11.9595 2.25H14.0407C18.0626 2.25 19.722 5.94375 19.9189 9.12187L20.322 14.6531C20.4345 16.3125 21.4376 17.8312 22.3751 19.1812C22.6751 19.6312 22.9657 20.1187 23.2657 20.5969C23.2956 20.629 23.3158 20.6689 23.3241 20.712C23.3324 20.7551 23.3284 20.7997 23.3126 20.8406Z" fill="#FB8C00"/>
</svg>
