<svg width="16" height="16" viewBox="0 0 16 16" fill="none" xmlns="http://www.w3.org/2000/svg">
    <path d="M10.7881 10.0475C11.6158 9.04553 12.1385 7.76039 12.1385 6.34454C12.1385 3.16435 9.54647 0.572266 6.36627 0.572266C3.18607 0.572266 0.593994 3.16435 0.593994 6.34454C0.593994 9.52474 3.18607 12.1168 6.36627 12.1168C7.76033 12.1168 9.06726 11.6158 10.0692 10.7663L14.5564 15.2535C14.6653 15.3624 14.796 15.4059 14.9267 15.4059C15.0574 15.4059 15.1881 15.3624 15.297 15.2535C15.493 15.0574 15.493 14.7089 15.297 14.5129L10.7881 10.0475ZM6.34449 11.0713C3.73063 11.0713 1.61776 8.95841 1.61776 6.34454C1.61776 3.73068 3.73063 1.61781 6.34449 1.61781C8.95835 1.61781 11.0712 3.73068 11.0712 6.34454C11.0712 8.95841 8.95835 11.0713 6.34449 11.0713Z" fill="black" fill-opacity="0.7"/>
</svg>
